<svg viewBox="0 0 1040 660" xmlns="http://www.w3.org/2000/svg" font-family="'PingFang SC','Hiragino Sans GB','Microsoft YaHei','Noto Sans SC',ui-sans-serif,system-ui,-apple-system,'Segoe UI',Roboto,sans-serif">
<defs>
  <radialGradient id="bg" cx="45%" cy="22%" r="72%">
    <stop offset="0%" stop-color="#0d1f3a"/>
    <stop offset="100%" stop-color="#070d1a"/>
  </radialGradient>
  <radialGradient id="surf" cx="40%" cy="18%" r="78%">
    <stop offset="0%" stop-color="#101e33"/>
    <stop offset="100%" stop-color="#0b1422"/>
  </radialGradient>
  <linearGradient id="bord" x1="0%" y1="0%" x2="100%" y2="100%">
    <stop offset="0%" stop-color="#3b82f6" stop-opacity="0.55"/>
    <stop offset="45%" stop-color="#1e293b" stop-opacity="0.9"/>
    <stop offset="100%" stop-color="#3b82f6" stop-opacity="0.22"/>
  </linearGradient>
  <linearGradient id="sep" x1="0%" y1="0%" x2="100%" y2="0%">
    <stop offset="0%" stop-color="#3b82f6" stop-opacity="0.75"/>
    <stop offset="55%" stop-color="#1e293b" stop-opacity="0.4"/>
    <stop offset="100%" stop-color="#1e293b" stop-opacity="0"/>
  </linearGradient>
  <linearGradient id="fbRow" x1="0%" y1="0%" x2="100%" y2="0%">
    <stop offset="0%" stop-color="#1c1000"/>
    <stop offset="100%" stop-color="#110a00"/>
  </linearGradient>
  <linearGradient id="foot" x1="0%" y1="0%" x2="100%" y2="0%">
    <stop offset="0%" stop-color="#001f16"/>
    <stop offset="100%" stop-color="#000e0a"/>
  </linearGradient>
</defs>

<!-- Background -->
<rect width="1040" height="660" fill="url(#bg)"/>

<!-- Corner accent dots -->
<circle cx="32" cy="32" r="2.5" fill="#3b82f6" fill-opacity="0.22"/>
<circle cx="1008" cy="32" r="2.5" fill="#3b82f6" fill-opacity="0.22"/>
<circle cx="32" cy="628" r="2.5" fill="#3b82f6" fill-opacity="0.08"/>
<circle cx="1008" cy="628" r="2.5" fill="#3b82f6" fill-opacity="0.08"/>

<!-- Card surface -->
<rect x="16" y="16" width="1008" height="628" rx="18" fill="url(#surf)"/>
<rect x="16" y="16" width="1008" height="628" rx="18" fill="none" stroke="url(#bord)" stroke-width="1.5"/>
<rect x="17" y="17" width="1006" height="626" rx="17.5" fill="none" stroke="#ffffff" stroke-width="0.5" stroke-opacity="0.04"/>

<!-- SPEF watermark -->
<text x="996" y="646" font-size="12" fill="#1e293b" text-anchor="end" letter-spacing="4" font-weight="700" opacity="0.7">SPEF</text>

<!-- Badge with glow ring -->
<circle cx="62" cy="68" r="28" fill="#3b82f6" fill-opacity="0.07"/>
<circle cx="62" cy="68" r="24" fill="#05111f" stroke="#3b82f6" stroke-width="2"/>
<text x="62" y="78" font-size="28" fill="#60a5fa" text-anchor="middle" font-weight="bold">1</text>

<!-- Title -->
<text x="102" y="72" font-size="33" fill="#bfdbfe" font-weight="bold">SPEF 四阶段与边界</text>

<!-- Reference -->
<text x="1004" y="57" font-size="11" fill="#2d3f5a" text-anchor="end" letter-spacing="2.5">手册</text>
<text x="1004" y="77" font-size="17" fill="#3d5478" text-anchor="end">§2.1</text>

<!-- Separator -->
<line x1="40" y1="104" x2="1000" y2="104" stroke="url(#sep)" stroke-width="1"/>

<!-- Column headers -->
<text x="76" y="138" font-size="13" fill="#475569" letter-spacing="1" font-weight="600">环节</text>
<text x="320" y="138" font-size="13" fill="#475569" letter-spacing="1" font-weight="600">做什么</text>
<text x="650" y="138" font-size="13" fill="#c0455a" letter-spacing="1" font-weight="600">不做什么</text>

<!-- Column dividers -->
<line x1="300" y1="116" x2="300" y2="484" stroke="#1e293b" stroke-width="1" stroke-dasharray="2,6" stroke-opacity="0.55"/>
<line x1="630" y1="116" x2="630" y2="484" stroke="#1e293b" stroke-width="1" stroke-dasharray="2,6" stroke-opacity="0.55"/>

<!-- Scan row -->
<rect x="40" y="149" width="960" height="74" rx="10" fill="#050f1e" stroke="#1e293b" stroke-opacity="0.9"/>
<rect x="40" y="149" width="4" height="74" rx="2" fill="#3b82f6"/>
<text x="76" y="183" font-size="23" fill="#60a5fa" font-weight="bold">Scan</text>
<text x="76" y="206" font-size="13" fill="#2d4060">扫描</text>
<text x="320" y="194" font-size="19" fill="#cbd5e1">读准系统/任务的真实状态</text>
<text x="650" y="194" font-size="19" fill="#fecdd3">只读现实，不出方案</text>

<!-- Plan row -->
<rect x="40" y="231" width="960" height="74" rx="10" fill="#06101f" stroke="#1e293b" stroke-opacity="0.6"/>
<rect x="40" y="231" width="4" height="74" rx="2" fill="#3b82f6" opacity="0.65"/>
<text x="76" y="265" font-size="23" fill="#60a5fa" font-weight="bold">Plan</text>
<text x="76" y="288" font-size="13" fill="#2d4060">规划</text>
<text x="320" y="276" font-size="19" fill="#cbd5e1">基于扫描制定方案</text>
<text x="650" y="276" font-size="19" fill="#fecdd3">只出意图，不动手</text>

<!-- Execute row -->
<rect x="40" y="313" width="960" height="74" rx="10" fill="#050f1e" stroke="#1e293b" stroke-opacity="0.9"/>
<rect x="40" y="313" width="4" height="74" rx="2" fill="#3b82f6" opacity="0.4"/>
<text x="76" y="347" font-size="23" fill="#60a5fa" font-weight="bold">Execute</text>
<text x="76" y="370" font-size="13" fill="#2d4060">执行</text>
<text x="320" y="358" font-size="19" fill="#cbd5e1">实施方案</text>
<text x="650" y="358" font-size="19" fill="#fecdd3">只忠实施加，不夹带判断</text>

<!-- Feedback row - amber -->
<rect x="40" y="395" width="960" height="74" rx="10" fill="url(#fbRow)" stroke="#f59e0b" stroke-width="1.5"/>
<rect x="40" y="395" width="4" height="74" rx="2" fill="#f59e0b"/>
<text x="76" y="429" font-size="23" fill="#fbbf24" font-weight="bold">Feedback</text>
<text x="76" y="452" font-size="13" fill="#5c3d10">反馈</text>
<text x="320" y="440" font-size="19" fill="#fde68a">验证、闭合循环</text>
<text x="650" y="440" font-size="19" fill="#fbbf24" font-weight="bold">必须有人参与</text>

<!-- Footer box -->
<rect x="40" y="489" width="960" height="137" rx="10" fill="url(#foot)" stroke="#2dd4bf" stroke-width="1.2"/>
<rect x="40" y="489" width="3" height="137" rx="1.5" fill="#2dd4bf" opacity="0.55"/>
<text x="64" y="524" font-size="18" fill="#99f6e4">▸ 理想配置：S/P/E 交给 Agent，<tspan fill="#2dd4bf" font-weight="bold">F 留给人</tspan>。</text>
<text x="64" y="557" font-size="18" fill="#99f6e4">▸ 核心准则：正确性不靠「某步做对」，靠<tspan fill="#2dd4bf" font-weight="bold">「这个环能否稳定闭合」</tspan>。</text>
<text x="64" y="590" font-size="18" fill="#99f6e4">▸ <tspan fill="#2dd4bf" font-weight="bold">只闭那个只有人能闭的环</tspan>，其余交给编译器/测试。</text>
<text x="64" y="617" font-size="16" fill="#2a4040">▸ S/P 交织处 = 双高节点（高耦合 × 高不可观）= 最该押注处。</text>
</svg>
